# xmcd
#
# Track frame offsets:
# 150
# 10195
# 24035
# 38302
# 50150
# 63481
# 76702
# 90423
# 105570
# 123963
# 135899
# 149500
# 160740
# 172257
# 190570
# 203051
# 215849
# 229870
# 242752
# 254224
#
# Disc length: 3595 seconds
#
#
# Revision: 1
# Processed by: cddbd v1.5.2PL0 Copyright (c) Steve Scherf et al.
# Submitted via: FreeRIP 2.945 
#
DISCID=070e0914
DTITLE=Teodoro and Sampaio - As vintes mais
DYEAR=2002
DGENRE=Sertanejo
TTITLE0=Quem tem... tem medo
TTITLE1=Pinga ne mim
TTITLE2=A gostosona
TTITLE3=Cantaram minha vizinha
TTITLE4=O machão chorou
TTITLE5=Se a casa cair
TTITLE6=Machucado de paixão
TTITLE7=Bão Tamém
TTITLE8=Paixão proibida
TTITLE9=Estrela Caída
TTITLE10=Vestido de sêda
TTITLE11=Cheira Chumbo
TTITLE12=Passe Livre
TTITLE13=Delícias de Amor
TTITLE14=Velho Galã
TTITLE15=Cunhada
TTITLE16=Casaco verde
TTITLE17=Amando Escondido
TTITLE18=Garanhão da madrugada
TTITLE19=Cheirinho de mulher
EXTD=Teodoro and Sampaio - As vintes mais
EXTT0=
EXTT1=
EXTT2=
EXTT3=
EXTT4=
EXTT5=
EXTT6=
EXTT7=
EXTT8=
EXTT9=
EXTT10=
EXTT11=
EXTT12=
EXTT13=
EXTT14=
EXTT15=
EXTT16=
EXTT17=
EXTT18=
EXTT19=
PLAYORDER=
